<svg id="Layer_1" viewBox="0 0 24 24" xmlns="http://www.w3.org/2000/svg" data-name="Layer 1"><path d="m21.97 3.757c-.082-.332-.329-.598-.653-.706-.129-.043-3.225-1.051-9.316-1.051s-9.189 1.008-9.317 1.051c-.324.108-.571.375-.653.706-.042.168-1.03 4.167-1.03 8.243s.988 8.074 1.03 8.243c.082.332.329.598.653.706.129.043 3.225 1.051 9.316 1.051s9.188-1.008 9.316-1.051c.324-.108.571-.375.653-.706.042-.168 1.03-4.167 1.03-8.243s-.988-8.074-1.03-8.243zm-9.97 2.243c2.691 0 4 1.309 4 4s-1.309 4-4 4-4-1.309-4-4 1.309-4 4-4zm0 14c-2.741 0-4.834-.216-6.282-.441.717-2.388 2.234-3.149 3.444-3.338 1.865-.293 3.803-.294 5.676 0 1.21.189 2.727.951 3.444 3.338-1.448.226-3.541.441-6.282.441z"/></svg>